<?xml version="1.0" encoding="UTF-8"?><svg id="a" xmlns="http://www.w3.org/2000/svg" viewBox="0 0 325.6 71.4"><path d="m48.8,70.8c-9.4,0-17-7.6-17-17v-9c0-4.1-3.3-7.4-7.4-7.4s-7.4,3.3-7.4,7.4v8.9c0,9.4-7.6,17-17,17v-9.6c4.1,0,7.4-3.3,7.4-7.4v-8.9c0-9.4,7.6-17,17-17s17,7.6,17,17v9c0,4.1,3.3,7.4,7.4,7.4s7.4-3.3,7.4-7.4V20.7c0-9.4,7.6-17,17-17v9.6c-4.1,0-7.4,3.3-7.4,7.4v33.1c0,9.3-7.6,17-17,17Z" style="fill:#ffffff;"/><path d="m118.6,28.5l-7.2,30.4h-5.4l-3.4-18.1h-.1l-3.4,18.1h-5.4l-7.2-30.4h6.5l3.7,18.9h.1l3.4-18.9h4.8l3.2,18.9h.1l3.7-18.9s6.6,0,6.6,0Z" style="fill:#ffffff;"/><path d="m15.6,8.7C15.6,3.9,19.5,0,24.3,0s8.7,3.9,8.7,8.7-3.9,8.7-8.7,8.7-8.7-3.9-8.7-8.7Z" style="fill:#ffffff;"/><path d="m183,58.9v-30.4h6.1v30.4h-6.1Z" style="fill:#ffffff;"/><path d="m182.2,19.6c0-2.2,1.8-3.9,3.9-3.9s3.9,1.8,3.9,3.9-1.8,3.9-3.9,3.9c-2.2,0-3.9-1.8-3.9-3.9Z" style="fill:#ffffff;"/><path d="m118.6,28.5l-7.2,30.4h-5.4l-3.4-18.1h-.1l-3.4,18.1h-5.4l-7.2-30.4h6.5l3.7,18.9h.1l3.4-18.9h4.8l3.2,18.9h.1l3.7-18.9s6.6,0,6.6,0Z" style="fill:#ffffff;"/><path d="m143,58.9v-30.4h6.1v3.2c1.2-1.1,2.5-2,3.7-2.6s2.7-1,4.4-1v6.5c-.6-.2-1.2-.4-1.9-.4-.6,0-1.3.1-2.1.3-.7.2-1.4.6-2,1.1s-1.2,1.2-1.6,2c-.4.8-.6,1.9-.6,3.1v18.1h-6v.1Z" style="fill:#ffffff;"/><path d="m159.7,58.9V16.2h6.1v25.6h.1l7.4-13.3h6.1l-7.3,12.4,8.8,18.1h-6.7l-5.5-13.1-2.9,4.6v8.5h-6.1v-.1Z" style="fill:#ffffff;"/><path d="m194.2,58.9v-30.4h6.1v2.9h.1c.6-1,1.4-1.7,2.3-2.4.9-.6,2-.9,3.5-.9.8,0,1.5.1,2.3.4.8.3,1.4.7,2,1.3s1.1,1.4,1.4,2.3c.4.9.5,2.1.5,3.5v23.3h-6.1v-21c0-1.1-.3-2-.8-2.6s-1.3-1-2.2-1c-1.2,0-2,.4-2.4,1.1-.4.7-.7,1.8-.7,3.1v20.5h-6v-.1Z" style="fill:#ffffff;"/><path d="m223.6,62.5c0,.7.3,1.4.9,2,.5.6,1.3,1,2.4,1,1,0,1.7-.3,2.2-.9.4-.6.7-1.4.7-2.4v-6h-.1c-.7,1-1.5,1.8-2.4,2.3s-2,.8-3.3.8c-2.6,0-4.3-1-5.3-2.9-.4-.7-.6-1.5-.8-2.5s-.2-2.3-.2-4v-11.6c0-2.2.1-3.8.2-4.9.2-2,1.2-3.5,2.8-4.5.8-.5,1.9-.8,3.4-.8.8,0,1.4.1,2,.2.5.2,1,.4,1.5.7.4.3.8.6,1.2,1s.7.8,1.1,1.2v-2.8h6.1v34.1c0,1-.2,2.1-.5,3.2s-.9,2-1.7,2.8c-.8.9-1.7,1.6-2.9,2.1s-2.5.8-4.1.8c-.9,0-1.9-.2-2.9-.5s-1.9-.8-2.8-1.5c-.9-.7-1.6-1.6-2.2-2.7-.6-1.1-1-2.6-1.2-4.4h5.9v.2Zm0-12.9c0,1,.2,1.8.6,2.5s1.2,1.1,2.4,1.1c.9,0,1.6-.3,2.2-.9.6-.6.9-1.4.9-2.4v-11.9c0-1.1-.3-2-.8-2.7-.6-.7-1.3-1-2.2-1-1,0-1.8.4-2.3,1.1-.5.8-.7,1.8-.7,3v11.2h-.1Z" style="fill:#ffffff;"/><path d="m241.2,58.9V16.2h18.2v5.8h-12.1v13h10.6v5.7h-10.6v18.2h-6.1Z" style="fill:#ffffff;"/><path d="m325.6,28.5l-7.2,30.4h-5.4l-3.4-18.1h-.1l-3.4,18.1h-5.3l-7.2-30.4h6.5l3.7,18.9h.1l3.4-18.9h4.8l3.2,18.9h.1l3.7-18.9s6.5,0,6.5,0Z" style="fill:#ffffff;"/><path d="m291.9,35.3c-.2-1-.5-2-.9-2.8-.7-1.3-1.8-2.4-3.1-3.2-1.3-.8-3-1.2-4.9-1.2s-3.6.4-4.9,1.2-2.4,1.9-3.1,3.2c-.4.8-.7,1.7-.9,2.8-.2,1-.2,2.2-.2,3.4v9.1h6.1v-10.1c0-1.2.3-2,.8-2.6s1.3-.9,2.2-.9,1.6.3,2.2.9c.5.6.8,1.5.8,2.6v12c0,1.2-.3,2.4-.8,3s-1.3.9-2.2.9h-10.9c-1.2,0-2-.4-2.4-.8s-.6-1.2-.6-2.4V16.2h-6.1v34.6c0,1.8.2,3.2.6,4.4s1,1.9,1.8,2.5,1.8,1.1,2.9,1.3c1.1.2,2.4.3,3.8.3h11c1.9,0,3.5-.4,4.9-1.2,1.3-.8,2.4-1.9,3.1-3.2.4-.8.7-1.7.9-2.8.2-1,.2-2.2.2-3.4v-10c-.1-1.2-.1-2.4-.3-3.4Z" style="fill:#ffffff;"/><path d="m129.4,28.1c-1.9,0-3.5.4-4.9,1.2-1.3.8-2.4,1.9-3.1,3.2-.4.8-.7,1.7-.9,2.8-.2,1-.2,2.2-.2,3.4v10c0,1.2.1,2.4.2,3.4.2,1,.5,2,.9,2.8.7,1.3,1.8,2.4,3.1,3.2,1.3.8,3,1.2,4.9,1.2s3.6-.4,4.9-1.2c1.3-.8,2.4-1.9,3.1-3.2.4-.8.7-1.7.9-2.8.2-1,.2-2.2.2-3.4v-9.1h-6.1v10.1c0,1.2-.3,2-.8,2.6s-1.3.9-2.2.9-1.6-.3-2.2-.9c-.5-.6-.8-1.5-.8-2.6v-12c0-1.2.3-2.4.8-3s1.3-.9,2.2-.9h9.1v-5.8h-9.1v.1Z" style="fill:#ffffff;"/></svg>